<svg xmlns="http://www.w3.org/2000/svg" height="24" viewBox="0 -960 960 960" width="24" fill="#e0e0e0">
  <path d="m370-80-16-128q-13-5-24.5-12T307-235l-119 50L88-352l104-78q-1-7-1-20t1-20L88-548l100-167 119 50q11-8 23-15t24-12l16-128h200l16 128q13 5 24.5 12t22.5 15l119-50 100 167-104 78q1 7 1 20t-1 20l104 78-100 167-119-50q-11 8-23 15t-24 12L570-80H370Zm70-80h79l14-106q31-8 57.5-23.5T639-327l99 41 39-68-86-65q5-14 7-29.5t2-31.5q0-16-2-31.5t-7-29.5l86-65-39-68-99 42q-22-23-48.5-38.5T533-694l-13-106h-79l-14 106q-31 8-57.5 23.5T321-633l-99-41-39 68 86 64q-5 15-7 30t-2 32q0 16 2 31t7 30l-86 65 39 68 99-42q22 23 48.5 38.5T427-266l13 106Zm42-180q58 0 99-41t41-99q0-58-41-99t-99-41q-59 0-99.5 41T342-480q0 58 40.5 99t99.5 41Zm-2-140Z"/>
</svg>
