<svg xmlns="http://www.w3.org/2000/svg" height="24" viewBox="0 -960 960 960" width="24" fill="#e0e0e0">
  <path d="M790-56 414-432q-18 2-35 8t-33 16l-84-86q28-22 59.5-39t65.5-27L226-720q-34 14-66.5 33T98-648L14-732q24-24 51.5-45.5T122-816L56-882l56-56 734 734-56 56ZM480-120q-42 0-71-29t-29-71q0-42 29-71t71-29q42 0 71 29t29 71q0 42-29 71t-71 29Zm322-228-82-82q8-10 15-19.5t13-21.5l-84-84q-11 7-21.5 14T622-528l-80-80q38-14 78.5-23t97.5-9q52 0 101 13t95 37l-84 86q-7-4-13.5-7.5T802-518l82 82-82 88Zm-38-358-78-78q64 18 121.5 50T916-648l-84 84q-29-24-66.5-43.5T764-648Z"/>
</svg>
